# xmcd CD database file
#
# Track frame offsets:
#	150
#	16343
#	35058
#	46936
#	63357
#	76596
#	93511
#	110625
#	128317
#	144600
#	164969
#	181466
#	200615
#	215654
#	233002
#	249095
#	266914
#	281294
#	296729
#	306980
#	322820
#	339204
#
# Disc length: 4723 seconds
#
# Revision: 0
# Processed by: cddbd v1.5.2PL0 Copyright (c) Steve Scherf et al.
# Submitted via: CDex 1.51
#
DISCID=3e127116
DTITLE=varios - setanejao do momento
DYEAR=2008
DGENRE=Country
TTITLE0=se quiser - joao neto e frederico
TTITLE1=faz de conta - hugo pena e gabriel
TTITLE2=chuva de bruxaria - vitor e leo
TTITLE3=vem ficar do meu lado - fernando e sorocaba
TTITLE4=por favor reza pra nois - joao neto e frederico
TTITLE5=o granfino e o caipira - victor e leo
TTITLE6=do brasil a argentina - hugo pena e gabriel
TTITLE7=o amor - fernando e sorocaba
TTITLE8=pura magia - joao neto e frederico
TTITLE9=quem de nos dois - victor e leo
TTITLE10=saudade matadeira - hugo pena e gabriel
TTITLE11=volta la pro seu lugar - fernando e sorocaba
TTITLE12=bebo e dou trabalho - joao neto e frederico
TTITLE13=fada - victor e leo
TTITLE14=hoje tem festa na cidade - fernando e sorocaba
TTITLE15=te amo e nao te quero - hugo pena e gabriel
TTITLE16=vida boa - victor e leo
TTITLE17=pega fogo cabare - joao neto e frederico
TTITLE18=tadim, tadim - hugo pena e gabriel
TTITLE19=sinto falta de voce - victor e leo
TTITLE20=deusa menina - fernando e sorocaba
TTITLE21=so de voce - joao neto e frederico
EXTD=YEAR: 2008
EXTT0=
EXTT1=
EXTT2=
EXTT3=
EXTT4=
EXTT5=
EXTT6=
EXTT7=
EXTT8=
EXTT9=
EXTT10=
EXTT11=
EXTT12=
EXTT13=
EXTT14=
EXTT15=
EXTT16=
EXTT17=
EXTT18=
EXTT19=
EXTT20=
EXTT21=
PLAYORDER=
